<?xml version="1.0" encoding="UTF-8" standalone="no"?>
<!DOCTYPE svg PUBLIC "-//W3C//DTD SVG 1.1//EN" "http://www.w3.org/Graphics/SVG/1.1/DTD/svg11.dtd">
<!-- Generated by Microsoft Visio, SVG Export Overview.svg Page-1 -->
<svg xmlns="http://www.w3.org/2000/svg" xmlns:xlink="http://www.w3.org/1999/xlink" xmlns:ev="http://www.w3.org/2001/xml-events"
		xmlns:v="http://schemas.microsoft.com/visio/2003/SVGExtensions/" width="11in" height="8.5in" viewBox="0 0 792 612"
		xml:space="preserve" color-interpolation-filters="sRGB" class="st12">
	<v:documentProperties v:langID="1033" v:viewMarkup="false">
		<v:userDefs>
			<v:ud v:nameU="msvNoAutoConnect" v:val="VT0(1):26"/>
		</v:userDefs>
	</v:documentProperties>

	<style type="text/css">
	<![CDATA[
		.st1 {fill:#ffffff}
		.st2 {stroke:#000000;stroke-linecap:round;stroke-linejoin:round;stroke-width:0.24}
		.st3 {stroke:#000000;stroke-linecap:round;stroke-linejoin:round;stroke-width:0.24;visibility:hidden}
		.st4 {fill:#000000;font-family:Calibri;font-size:0.666664em;font-weight:bold}
		.st5 {font-size:1em}
		.st6 {fill:#ffffff;stroke:#000000;stroke-linecap:round;stroke-linejoin:round;stroke-width:0.24}
		.st7 {fill:#ffffff;stroke:none;stroke-linecap:butt;stroke-width:7.2}
		.st8 {fill:#000000;font-family:Calibri;font-size:0.666664em}
		.st9 {stroke:#000000;stroke-linecap:round;stroke-linejoin:round;stroke-width:0.75}
		.st10 {marker-end:url(#mrkr20-189);stroke:#000000;stroke-linecap:round;stroke-linejoin:round;stroke-width:0.24}
		.st11 {fill:#000000;fill-opacity:1;stroke:#000000;stroke-opacity:1;stroke-width:0.057142857142857}
		.st12 {fill:none;fill-rule:evenodd;font-size:12px;overflow:visible;stroke-linecap:square;stroke-miterlimit:3}
	]]>
	</style>

	<defs id="Markers">
		<g id="lend20">
			<path
					d="M 0 0.75 C -0.414214 0.75 -0.75 0.414214 -0.75 0 -0.75 -0.414214 -0.414214 -0.75 0 -0.75 0.414214 -0.75 0.75 -0.414214 0.75 0 0.75 0.414214 0.414214 0.75 0 0.75 Z "
					style="stroke-linecap:round;stroke-linejoin:round;fill:none"/>
		</g>
		<marker id="mrkr20-189" class="st11" v:arrowType="20" v:arrowSize="4" v:setback="13.125" refX="-13.125" orient="auto"
				markerUnits="strokeWidth" overflow="visible">
			<use xlink:href="#lend20" transform="scale(-17.5,-17.5) "/>
		</marker>
	</defs>
	<g v:mID="0" v:index="1" v:groupContext="foregroundPage">
		<title>Page-1</title>
		<v:pageProperties v:drawingScale="1" v:pageScale="1" v:drawingUnits="19" v:shadowOffsetX="9" v:shadowOffsetY="-9"/>
		<v:layer v:name="Connector" v:index="0"/>
		<g id="group1-1" transform="translate(153,-318.375)" v:mID="1" v:groupContext="group">
			<v:userDefs>
				<v:ud v:nameU="F"/>
				<v:ud v:nameU="Format" v:val="VT0(0):26"/>
			</v:userDefs>
			<title>Node</title>
			<g id="shape2-2" v:mID="2" v:groupContext="shape">
				<title>Sheet.2</title>
				<path d="M252 612 L0 612 L252 612 Z" class="st1"/>
			</g>
			<g id="shape3-5" v:mID="3" v:groupContext="shape">
				<title>Sheet.3</title>
				<path d="M252 612 L0 612 L252 612 Z" class="st1"/>
			</g>
			<g id="shape4-8" v:mID="4" v:groupContext="shape">
				<title>Sheet.4</title>
				<path d="M252 612 L0 612 L252 612 Z" class="st1"/>
			</g>
			<g id="shape5-11" v:mID="5" v:groupContext="shape" transform="translate(252,0)">
				<title>Sheet.5</title>
				<path d="M0 612 L0 453.37 L0 612 Z" class="st1"/>
				<path d="" class="st2"/>
			</g>
			<g id="shape6-14" v:mID="6" v:groupContext="shape">
				<title>Sheet.6</title>
				<path d="M252 612 L252 453.37 L0 453.37 L0 612 L252 612 ZM0 453.37 L4.5 448.87 L256.5 448.87 L252 453.37 L0 453.37
							 ZM252 612 L256.5 607.5 L256.5 448.87 L252 453.37 L252 612 ZM256.5 607.5 L256.5 448.87 L4.5 448.87 L256.5
							 448.87 L256.5 607.5 Z" class="st1"/>
				<path d="M0 453.37 L4.5 448.87 L256.5 448.87 L252 453.37 L0 453.37" class="st2"/>
				<path d="M252 612 L256.5 607.5 L256.5 448.87" class="st2"/>
				<path d="M252 453.37 L252 612" class="st2"/>
				<path d="M0 453.37 L0 612 L252 612" class="st2"/>
			</g>
		</g>
		<g id="group7-20" transform="translate(189,-179.9)" v:mID="7" v:groupContext="group">
			<v:userDefs>
				<v:ud v:nameU="F"/>
				<v:ud v:nameU="Format" v:val="VT0(0):26"/>
			</v:userDefs>
			<title>Node.7</title>
			<g id="shape8-21" v:mID="8" v:groupContext="shape">
				<title>Sheet.8</title>
				<path d="M162 612 L0 612 L162 612 Z" class="st1"/>
			</g>
			<g id="shape9-24" v:mID="9" v:groupContext="shape">
				<title>Sheet.9</title>
				<path d="M162 612 L0 612 L162 612 Z" class="st1"/>
			</g>
			<g id="shape10-27" v:mID="10" v:groupContext="shape">
				<title>Sheet.10</title>
				<rect x="0" y="607.4" width="162" height="4.59979" class="st1"/>
				<rect x="0" y="607.4" width="162" height="4.59979" class="st3"/>
			</g>
			<g id="shape11-30" v:mID="11" v:groupContext="shape" transform="translate(162,0)">
				<title>Sheet.11</title>
				<path d="M0 612 L0 512.8 L0 612 Z" class="st1"/>
				<path d="" class="st2"/>
			</g>
			<g id="shape12-33" v:mID="12" v:groupContext="shape">
				<title>Sheet.12</title>
				<path d="M162 612 L162 512.8 L0 512.8 L0 612 L162 612 ZM0 512.8 L4.5 508.3 L166.5 508.3 L162 512.8 L0 512.8 ZM162
							 612 L166.5 607.5 L166.5 508.3 L162 512.8 L162 612 ZM166.5 607.5 L166.5 508.3 L4.5 508.3 L166.5 508.3
							 L166.5 607.5 Z" class="st1"/>
				<path d="M0 512.8 L4.5 508.3 L166.5 508.3 L162 512.8 L0 512.8" class="st2"/>
				<path d="M162 612 L166.5 607.5 L166.5 508.3" class="st2"/>
				<path d="M162 512.8 L162 612" class="st2"/>
				<path d="M0 512.8 L0 612 L162 612" class="st2"/>
			</g>
		</g>
		<g id="shape14-39" v:mID="14" v:groupContext="shape" transform="translate(279,-522)">
			<title>Actor</title>
			<desc>End-user</desc>
			<v:userDefs>
				<v:ud v:nameU="F" v:val="VT0(1):26"/>
				<v:ud v:nameU="Format" v:val="VT0(0):26"/>
				<v:ud v:nameU="State" v:val="VT0(1):26"/>
			</v:userDefs>
			<v:textBlock v:margins="rect(0,0,0,0)" v:verticalAlign="2"/>
			<v:textRect cx="9" cy="567.302" width="31.11" height="9.60356"/>
			<path d="M9 585 A3.38203 4.50938 0 1 1 9 576 A3.38203 4.50937 0 1 1 9 585 Z" class="st1"/>
			<path d="M9 585 A3.38203 4.50938 0 1 1 9 576 A3.38203 4.50937 0 1 1 9 585" class="st2"/>
			<path d="M0 589.5 L9 589.5 L18 589.5" class="st2"/>
			<path d="M2.25 612 L9 597.6 L15.75 612" class="st2"/>
			<path d="M9 585 L9 597.6" class="st2"/>
			<text x="-5.65" y="569.7" class="st4" v:langID="1033"><v:paragraph v:horizAlign="1"/><v:tabList/>End-user</text>		</g>
		<g id="group15-46" transform="translate(315,-342)" v:mID="15" v:groupContext="group">
			<v:userDefs>
				<v:ud v:nameU="F" v:val="VT0(0):26"/>
				<v:ud v:nameU="Format" v:val="VT0(0):26"/>
				<v:ud v:nameU="ResizeIcon" v:val="VT0(0):26"/>
			</v:userDefs>
			<title>Component</title>
			<g id="shape16-47" v:mID="16" v:groupContext="shape">
				<title>Sheet.16</title>
				<path d="M72 612 L0 612 L72 612 Z" class="st1"/>
			</g>
			<g id="shape17-50" v:mID="17" v:groupContext="shape">
				<title>Sheet.17</title>
				<path d="M72 612 L0 612 L72 612 Z" class="st1"/>
			</g>
			<g id="shape18-53" v:mID="18" v:groupContext="shape">
				<title>Sheet.18</title>
				<path d="M72 612 L0 612 L72 612 Z" class="st1"/>
			</g>
			<g id="shape19-56" v:mID="19" v:groupContext="shape" transform="translate(72,0)">
				<title>Sheet.19</title>
				<path d="M0 612 L0 576 L0 612 Z" class="st1"/>
				<path d="" class="st2"/>
			</g>
			<g id="shape20-59" v:mID="20" v:groupContext="shape">
				<title>Sheet.20</title>
				<desc>OpenID Provider</desc>
				<v:textBlock v:margins="rect(4,4,4,4)"/>
				<v:textRect cx="36" cy="594" width="72" height="36"/>
				<path d="M72 612 L72 576 L0 576 L0 612 L72 612 ZM72 612 L72 576 L0 576 L72 576 L72 612 Z" class="st1"/>
				<path d="M72 612 L72 576" class="st2"/>
				<path d="M0 612 L0 576" class="st2"/>
				<path d="M0 612 L72 612" class="st2"/>
				<path d="M72 612 L72 576" class="st2"/>
				<path d="M0 576 L72 576" class="st2"/>
				<text x="23.4" y="596.4" class="st4" v:langID="1033"><v:paragraph v:horizAlign="1"/><v:tabList/><v:newlineChar/>OpenID<v:newlineChar/><tspan
							x="21.84" dy="1.2em" class="st5">Provider</tspan></text>			</g>
			<g id="shape21-68" v:mID="21" v:groupContext="shape" transform="translate(58.5,-22.5)">
				<title>Sheet.21</title>
				<path d="M0 612 L9 612 L9 603 L0 603 L0 604.8 L1.8 604.8 L1.8 606.6 L0 606.6 L0 608.4 L1.8 608.4 L1.8 610.2 L0 610.2
							 L0 612 ZM-1.8 610.2 L1.8 610.2 L1.8 608.4 L-1.8 608.4 L-1.8 610.2 ZM-1.8 606.6 L1.8 606.6 L1.8 604.8
							 L-1.8 604.8 L-1.8 606.6 Z" class="st6"/>
			</g>
		</g>
		<g id="group22-70" transform="translate(252,-202.5)" v:mID="22" v:groupContext="group">
			<v:userDefs>
				<v:ud v:nameU="F" v:val="VT0(0):26"/>
				<v:ud v:nameU="Format" v:val="VT0(0):26"/>
				<v:ud v:nameU="ResizeIcon" v:val="VT0(0):26"/>
			</v:userDefs>
			<title>Component.22</title>
			<g id="shape23-71" v:mID="23" v:groupContext="shape">
				<title>Sheet.23</title>
				<path d="M72 612 L0 612 L72 612 Z" class="st1"/>
			</g>
			<g id="shape24-74" v:mID="24" v:groupContext="shape">
				<title>Sheet.24</title>
				<path d="M72 612 L0 612 L72 612 Z" class="st1"/>
			</g>
			<g id="shape25-77" v:mID="25" v:groupContext="shape">
				<title>Sheet.25</title>
				<path d="M72 612 L0 612 L72 612 Z" class="st1"/>
			</g>
			<g id="shape26-80" v:mID="26" v:groupContext="shape" transform="translate(72,0)">
				<title>Sheet.26</title>
				<path d="M0 612 L0 576 L0 612 Z" class="st1"/>
				<path d="" class="st2"/>
			</g>
			<g id="shape27-83" v:mID="27" v:groupContext="shape">
				<title>Sheet.27</title>
				<desc>NoSQL Database</desc>
				<v:textBlock v:margins="rect(4,4,4,4)"/>
				<v:textRect cx="36" cy="594" width="72" height="36"/>
				<path d="M72 612 L72 576 L0 576 L0 612 L72 612 ZM72 612 L72 576 L0 576 L72 576 L72 612 Z" class="st1"/>
				<path d="M72 612 L72 576" class="st2"/>
				<path d="M0 612 L0 576" class="st2"/>
				<path d="M0 612 L72 612" class="st2"/>
				<path d="M72 612 L72 576" class="st2"/>
				<path d="M0 576 L72 576" class="st2"/>
				<text x="24.89" y="591.6" class="st4" v:langID="1033"><v:paragraph v:horizAlign="1"/><v:tabList/>NoSQL<v:newlineChar/><tspan
							x="20.41" dy="1.2em" class="st5">Database</tspan></text>			</g>
			<g id="shape28-92" v:mID="28" v:groupContext="shape" transform="translate(58.5,-22.5)">
				<title>Sheet.28</title>
				<path d="M0 612 L9 612 L9 603 L0 603 L0 604.8 L1.8 604.8 L1.8 606.6 L0 606.6 L0 608.4 L1.8 608.4 L1.8 610.2 L0 610.2
							 L0 612 ZM-1.8 610.2 L1.8 610.2 L1.8 608.4 L-1.8 608.4 L-1.8 610.2 ZM-1.8 606.6 L1.8 606.6 L1.8 604.8
							 L-1.8 604.8 L-1.8 606.6 Z" class="st6"/>
			</g>
		</g>
		<g id="group29-94" transform="translate(189,-342)" v:mID="29" v:groupContext="group">
			<v:userDefs>
				<v:ud v:nameU="F" v:val="VT0(0):26"/>
				<v:ud v:nameU="Format" v:val="VT0(0):26"/>
				<v:ud v:nameU="ResizeIcon" v:val="VT0(0):26"/>
			</v:userDefs>
			<title>Component.29</title>
			<g id="shape30-95" v:mID="30" v:groupContext="shape">
				<title>Sheet.30</title>
				<path d="M72 612 L0 612 L72 612 Z" class="st1"/>
			</g>
			<g id="shape31-98" v:mID="31" v:groupContext="shape">
				<title>Sheet.31</title>
				<path d="M72 612 L0 612 L72 612 Z" class="st1"/>
			</g>
			<g id="shape32-101" v:mID="32" v:groupContext="shape">
				<title>Sheet.32</title>
				<path d="M72 612 L0 612 L72 612 Z" class="st1"/>
			</g>
			<g id="shape33-104" v:mID="33" v:groupContext="shape" transform="translate(72,0)">
				<title>Sheet.33</title>
				<path d="M0 612 L0 576 L0 612 Z" class="st1"/>
				<path d="" class="st2"/>
			</g>
			<g id="shape34-107" v:mID="34" v:groupContext="shape">
				<title>Sheet.34</title>
				<desc>Administration Web Interface</desc>
				<v:textBlock v:margins="rect(4,4,4,4)"/>
				<v:textRect cx="36" cy="594" width="72" height="36"/>
				<path d="M72 612 L72 576 L0 576 L0 612 L72 612 ZM72 612 L72 576 L0 576 L72 576 L72 612 Z" class="st1"/>
				<path d="M72 612 L72 576" class="st2"/>
				<path d="M0 612 L0 576" class="st2"/>
				<path d="M0 612 L72 612" class="st2"/>
				<path d="M72 612 L72 576" class="st2"/>
				<path d="M0 576 L72 576" class="st2"/>
				<text x="11.02" y="596.4" class="st4" v:langID="1033"><v:paragraph v:horizAlign="1"/><v:tabList/><v:newlineChar/>Administration <tspan
							x="12.35" dy="1.2em" class="st5">Web Interface</tspan></text>			</g>
			<g id="shape35-116" v:mID="35" v:groupContext="shape" transform="translate(58.5,-22.5)">
				<title>Sheet.35</title>
				<path d="M0 612 L9 612 L9 603 L0 603 L0 604.8 L1.8 604.8 L1.8 606.6 L0 606.6 L0 608.4 L1.8 608.4 L1.8 610.2 L0 610.2
							 L0 612 ZM-1.8 610.2 L1.8 610.2 L1.8 608.4 L-1.8 608.4 L-1.8 610.2 ZM-1.8 606.6 L1.8 606.6 L1.8 604.8
							 L-1.8 604.8 L-1.8 606.6 Z" class="st6"/>
			</g>
		</g>
		<g id="shape36-118" v:mID="36" v:groupContext="shape" transform="translate(225,-522)">
			<title>Actor.36</title>
			<desc>Administrator</desc>
			<v:userDefs>
				<v:ud v:nameU="F" v:val="VT0(1):26"/>
				<v:ud v:nameU="Format" v:val="VT0(0):26"/>
				<v:ud v:nameU="State" v:val="VT0(1):26"/>
			</v:userDefs>
			<v:textBlock v:margins="rect(0,0,0,0)" v:verticalAlign="2"/>
			<v:textRect cx="4.35482" cy="567.302" width="48.36" height="9.60356"/>
			<path d="M9 585 A3.38203 4.50938 0 1 1 9 576 A3.38203 4.50937 0 1 1 9 585 Z" class="st1"/>
			<path d="M9 585 A3.38203 4.50938 0 1 1 9 576 A3.38203 4.50937 0 1 1 9 585" class="st2"/>
			<path d="M0 589.5 L9 589.5 L18 589.5" class="st2"/>
			<path d="M2.25 612 L9 597.6 L15.75 612" class="st2"/>
			<path d="M9 585 L9 597.6" class="st2"/>
			<text x="-18.92" y="569.7" class="st4" v:langID="1033"><v:paragraph v:horizAlign="1"/><v:tabList/>Administrator</text>		</g>
		<g id="shape39-125" v:mID="39" v:groupContext="shape" transform="translate(342,-522)">
			<title>Actor.39</title>
			<desc>Sign In Canada Acceptance Platform</desc>
			<v:userDefs>
				<v:ud v:nameU="F" v:val="VT0(1):26"/>
				<v:ud v:nameU="Format" v:val="VT0(0):26"/>
				<v:ud v:nameU="State" v:val="VT0(1):26"/>
			</v:userDefs>
			<v:textBlock v:margins="rect(0,0,0,0)" v:verticalAlign="2"/>
			<v:textRect cx="5.80643" cy="563.102" width="71.01" height="19.2035"/>
			<path d="M9 585 A3.38203 4.50938 0 1 1 9 576 A3.38203 4.50937 0 1 1 9 585 Z" class="st1"/>
			<path d="M9 585 A3.38203 4.50938 0 1 1 9 576 A3.38203 4.50937 0 1 1 9 585" class="st2"/>
			<path d="M0 589.5 L9 589.5 L18 589.5" class="st2"/>
			<path d="M2.25 612 L9 597.6 L15.75 612" class="st2"/>
			<path d="M9 585 L9 597.6" class="st2"/>
			<text x="-18.47" y="560.7" class="st4" v:langID="1033"><v:paragraph v:horizAlign="1"/><v:tabList/>Sign In Canada<v:newlineChar/><tspan
						x="-28.79" dy="1.2em" class="st5">Acceptance Platform</tspan></text>		</g>
		<g id="group40-133" transform="translate(252,-414)" v:mID="40" v:groupContext="group">
			<v:userDefs>
				<v:ud v:nameU="F" v:val="VT0(0):26"/>
				<v:ud v:nameU="Format" v:val="VT0(0):26"/>
				<v:ud v:nameU="ResizeIcon" v:val="VT0(0):26"/>
			</v:userDefs>
			<title>Component.40</title>
			<g id="shape41-134" v:mID="41" v:groupContext="shape">
				<title>Sheet.41</title>
				<path d="M72 612 L0 612 L72 612 Z" class="st1"/>
			</g>
			<g id="shape42-137" v:mID="42" v:groupContext="shape">
				<title>Sheet.42</title>
				<path d="M72 612 L0 612 L72 612 Z" class="st1"/>
			</g>
			<g id="shape43-140" v:mID="43" v:groupContext="shape">
				<title>Sheet.43</title>
				<path d="M72 612 L0 612 L72 612 Z" class="st1"/>
			</g>
			<g id="shape44-143" v:mID="44" v:groupContext="shape" transform="translate(72,0)">
				<title>Sheet.44</title>
				<path d="M0 612 L0 576 L0 612 Z" class="st1"/>
				<path d="" class="st2"/>
			</g>
			<g id="shape45-146" v:mID="45" v:groupContext="shape">
				<title>Sheet.45</title>
				<desc>HTTP Reverse Proxy</desc>
				<v:textBlock v:margins="rect(4,4,4,4)"/>
				<v:textRect cx="36" cy="594" width="72" height="36"/>
				<path d="M72 612 L72 576 L0 576 L0 612 L72 612 ZM72 612 L72 576 L0 576 L72 576 L72 612 Z" class="st1"/>
				<path d="M72 612 L72 576" class="st2"/>
				<path d="M0 612 L0 576" class="st2"/>
				<path d="M0 612 L72 612" class="st2"/>
				<path d="M72 612 L72 576" class="st2"/>
				<path d="M0 576 L72 576" class="st2"/>
				<text x="27.39" y="596.4" class="st4" v:langID="1033"><v:paragraph v:horizAlign="1"/><v:tabList/><v:newlineChar/>HTTP<v:newlineChar/><tspan
							x="12.46" dy="1.2em" class="st5">Reverse Proxy</tspan></text>			</g>
			<g id="shape46-155" v:mID="46" v:groupContext="shape" transform="translate(58.5,-22.5)">
				<title>Sheet.46</title>
				<path d="M0 612 L9 612 L9 603 L0 603 L0 604.8 L1.8 604.8 L1.8 606.6 L0 606.6 L0 608.4 L1.8 608.4 L1.8 610.2 L0 610.2
							 L0 612 ZM-1.8 610.2 L1.8 610.2 L1.8 608.4 L-1.8 608.4 L-1.8 610.2 ZM-1.8 606.6 L1.8 606.6 L1.8 604.8
							 L-1.8 604.8 L-1.8 606.6 Z" class="st6"/>
			</g>
		</g>
		<g id="shape51-157" v:mID="51" v:groupContext="shape" transform="translate(216,-318.375)">
			<title>Label</title>
			<desc>Application Server</desc>
			<v:textBlock v:margins="rect(0,4,0,4)"/>
			<v:textRect cx="-19.3462" cy="462.375" width="69.31" height="9.00357"/>
			<rect v:rectContext="textBkgnd" x="-49.9999" y="457.875" width="59.4954" height="9" class="st7"/>
			<text x="-50" y="464.63" class="st8" v:langID="1033"><v:paragraph v:spLine="-1.125"/><v:tabList/>Application Server</text>		</g>
		<g id="shape52-160" v:mID="52" v:groupContext="shape" transform="translate(342,-152.9)">
			<title>Label.52</title>
			<desc>Database Server</desc>
			<v:textBlock v:margins="rect(0,4,0,4)"/>
			<v:textRect cx="-115.383" cy="495" width="62.86" height="9.00357"/>
			<rect v:rectContext="textBkgnd" x="-142.812" y="490.5" width="53.0467" height="9" class="st7"/>
			<text x="-142.81" y="497.25" class="st8" v:langID="1033"><v:paragraph v:spLine="-1.125"/><v:tabList/>Database Server</text>		</g>
		<g id="shape53-163" v:mID="53" v:groupContext="shape" v:layerMember="0" transform="translate(234,-522)">
			<title>Dynamic connector</title>
			<path d="M0 612 L54 662.94" class="st9"/>
		</g>
		<g id="shape54-166" v:mID="54" v:groupContext="shape" v:layerMember="0" transform="translate(279,-522)">
			<title>Dynamic connector.54</title>
			<path d="M9 612 L9 662.94" class="st9"/>
		</g>
		<g id="shape55-169" v:mID="55" v:groupContext="shape" v:layerMember="0" transform="translate(351,-522)">
			<title>Dynamic connector.55</title>
			<path d="M0 612 L-63 662.94" class="st9"/>
		</g>
		<g id="shape56-172" v:mID="56" v:groupContext="shape" v:layerMember="0" transform="translate(270,-414)">
			<title>Dynamic connector.56</title>
			<path d="M0 612 L0 630 L-41.94 630" class="st9"/>
		</g>
		<g id="shape57-175" v:mID="57" v:groupContext="shape" v:layerMember="0" transform="translate(306,-414)">
			<title>Dynamic connector.57</title>
			<path d="M0 612 L0 630 L41.94 630" class="st9"/>
		</g>
		<g id="shape58-178" v:mID="58" v:groupContext="shape" v:layerMember="0" transform="translate(351,-342)">
			<title>Dynamic connector.58</title>
			<path d="M0 612 L-63 694.44" class="st9"/>
		</g>
		<g id="shape59-181" v:mID="59" v:groupContext="shape" v:layerMember="0" transform="translate(225,-342)">
			<title>Dynamic connector.59</title>
			<path d="M0 612 L63 694.44" class="st9"/>
		</g>
		<g id="shape60-184" v:mID="60" v:groupContext="shape" transform="translate(288,-450)">
			<title>Interface, Socket</title>
			<v:userDefs>
				<v:ud v:nameU="Interface" v:val="VT0(1):26"/>
				<v:ud v:nameU="EndSize" v:val="VT0(0.0425):26"/>
				<v:ud v:nameU="MinLength" v:val="VT0(0.25):26"/>
				<v:ud v:nameU="SocketClosure" v:val="VT0(0.1963):26"/>
			</v:userDefs>
			<path d="M0 612 L0 597.15" class="st10"/>
		</g>
		<g id="shape61-190" v:mID="61" v:groupContext="shape" transform="translate(225,-378)">
			<title>Interface, Socket.61</title>
			<v:userDefs>
				<v:ud v:nameU="Interface" v:val="VT0(1):26"/>
				<v:ud v:nameU="EndSize" v:val="VT0(0.0425):26"/>
				<v:ud v:nameU="MinLength" v:val="VT0(0.25):26"/>
				<v:ud v:nameU="SocketClosure" v:val="VT0(0.1963):26"/>
			</v:userDefs>
			<path d="M0 612 L0 597.15" class="st10"/>
		</g>
		<g id="shape62-195" v:mID="62" v:groupContext="shape" transform="translate(351,-378)">
			<title>Interface, Socket.62</title>
			<v:userDefs>
				<v:ud v:nameU="Interface" v:val="VT0(1):26"/>
				<v:ud v:nameU="EndSize" v:val="VT0(0.0425):26"/>
				<v:ud v:nameU="MinLength" v:val="VT0(0.25):26"/>
				<v:ud v:nameU="SocketClosure" v:val="VT0(0.1963):26"/>
			</v:userDefs>
			<path d="M0 612 L0 597.15" class="st10"/>
		</g>
		<g id="shape64-200" v:mID="64" v:groupContext="shape" transform="translate(288,-238.5)">
			<title>Interface, Socket.64</title>
			<v:userDefs>
				<v:ud v:nameU="Interface" v:val="VT0(1):26"/>
				<v:ud v:nameU="EndSize" v:val="VT0(0.0425):26"/>
				<v:ud v:nameU="MinLength" v:val="VT0(0.25):26"/>
				<v:ud v:nameU="SocketClosure" v:val="VT0(0.1963):26"/>
			</v:userDefs>
			<path d="M0 612 L0 597.15" class="st10"/>
		</g>
	</g>
</svg>
